<?xml version="1.0" encoding="utf-8"?>
<!-- Generator: Adobe Illustrator 16.0.3, SVG Export Plug-In . SVG Version: 6.00 Build 0)  -->
<!DOCTYPE svg PUBLIC "-//W3C//DTD SVG 1.1//EN" "http://www.w3.org/Graphics/SVG/1.1/DTD/svg11.dtd">
<svg version="1.1" id="레이어_1" xmlns="http://www.w3.org/2000/svg" xmlns:xlink="http://www.w3.org/1999/xlink" x="0px"
	 y="0px" width="279.397px" height="350.552px" viewBox="0 0 279.397 350.552" enable-background="new 0 0 279.397 350.552"
	 xml:space="preserve">
<g>
	<defs>
		<rect id="SVGID_1_" width="279.397" height="350.552"/>
	</defs>
	<clipPath id="SVGID_2_">
		<use xlink:href="#SVGID_1_"  overflow="visible"/>
	</clipPath>
	<path clip-path="url(#SVGID_2_)" fill="#FFFFFF" d="M233.448,201.963h-37.25v-1.667V48.963c0,0,1.125-12.875-11.625-13.125h-43.375
		h-3H94.824c-12.75,0.25-11.625,13.125-11.625,13.125v151.333v1.667h-37.25c0,0-11.5,3.083-7.333,15.5l0.916,1.333l92.917,93.834
		c0,0,3.004,1.996,7.125,2.076v0.007c0.042,0,0.083-0.003,0.125-0.004c0.042,0.001,0.083,0.004,0.125,0.004v-0.007
		c4.121-0.08,7.125-2.076,7.125-2.076l92.917-93.834l0.916-1.333C244.948,205.046,233.448,201.963,233.448,201.963"/>
	<path clip-path="url(#SVGID_2_)" fill="none" stroke="#000000" stroke-width="6" stroke-miterlimit="10" d="M233.448,201.963
		h-37.25v-1.667V48.963c0,0,1.125-12.875-11.625-13.125h-43.375h-3H94.824c-12.75,0.25-11.625,13.125-11.625,13.125v151.333v1.667
		h-37.25c0,0-11.5,3.083-7.333,15.5l0.916,1.333l92.917,93.834c0,0,3.004,1.996,7.125,2.076v0.007c0.042,0,0.083-0.003,0.125-0.004
		c0.042,0.001,0.083,0.004,0.125,0.004v-0.007c4.121-0.08,7.125-2.076,7.125-2.076l92.917-93.834l0.916-1.333
		C244.948,205.046,233.448,201.963,233.448,201.963z"/>
</g>
</svg>
