<svg id="svg" version="1.1" width="400" height="400" xmlns="http://www.w3.org/2000/svg" xmlns:xlink="http://www.w3.org/1999/xlink" style="display: block;"><g id="svgg"><path id="path0" d="M119.892 7.153 C 119.080 7.567,117.389 8.034,116.134 8.191 C 112.980 8.585,112.260 8.919,109.633 11.204 C 108.371 12.302,107.082 13.206,106.769 13.214 C 105.455 13.247,102.371 16.241,59.189 59.399 C 24.151 94.417,13.912 104.870,13.563 105.975 C 13.316 106.759,12.703 108.030,12.200 108.800 C 8.719 114.135,9.535 128.467,13.565 132.783 C 14.481 133.764,15.989 135.626,16.915 136.920 C 17.842 138.215,19.196 140.022,19.924 140.937 C 20.987 142.273,55.845 177.368,61.522 182.819 C 62.335 183.599,71.730 193.025,82.400 203.764 C 97.020 218.479,102.539 223.778,104.800 225.269 C 106.450 226.357,108.520 227.913,109.400 228.726 C 111.935 231.069,112.214 231.229,115.083 231.995 C 116.577 232.394,118.520 233.000,119.400 233.342 C 121.988 234.349,127.347 234.203,129.805 233.058 C 130.908 232.545,132.521 231.991,133.389 231.828 C 134.634 231.595,135.668 230.848,138.292 228.287 C 144.986 221.753,144.887 222.200,145.102 197.700 L 145.276 178.000 186.633 178.000 C 226.806 178.000,228.075 178.023,230.919 178.803 C 232.529 179.245,235.757 179.755,238.092 179.938 C 241.361 180.193,242.827 180.506,244.469 181.298 C 245.641 181.865,247.950 182.975,249.600 183.765 C 252.945 185.367,255.696 186.868,256.000 187.255 C 256.110 187.396,257.804 188.883,259.764 190.561 C 261.724 192.238,264.469 194.984,265.863 196.661 C 267.258 198.339,268.655 199.911,268.968 200.156 C 269.547 200.608,270.434 202.070,272.511 206.000 C 273.151 207.210,273.813 208.380,273.982 208.600 C 274.151 208.820,274.415 209.540,274.568 210.200 C 274.722 210.860,275.182 212.120,275.592 213.000 C 276.015 213.907,276.528 216.420,276.776 218.800 C 277.018 221.110,277.482 223.884,277.808 224.964 C 278.560 227.456,278.559 229.450,277.804 231.589 C 277.476 232.519,277.001 235.377,276.748 237.940 C 276.495 240.503,276.133 242.800,275.942 243.044 C 275.752 243.287,275.262 244.458,274.854 245.644 C 273.722 248.932,270.017 255.268,267.703 257.872 C 266.565 259.152,265.075 260.913,264.393 261.785 C 263.711 262.657,262.308 264.017,261.276 264.807 C 260.244 265.598,258.590 267.005,257.600 267.935 C 256.610 268.864,255.350 269.869,254.800 270.169 C 249.990 272.786,246.754 274.400,246.317 274.400 C 246.029 274.400,244.985 274.825,243.997 275.345 C 243.009 275.864,241.238 276.413,240.062 276.563 C 238.886 276.714,236.816 277.264,235.462 277.785 C 234.108 278.306,232.208 278.943,231.239 279.200 C 229.764 279.593,228.621 280.533,224.193 285.000 C 216.805 292.452,217.533 286.955,217.679 334.200 L 217.800 373.000 218.900 375.350 C 219.505 376.642,220.000 378.061,220.000 378.503 C 220.000 381.179,220.945 382.592,226.300 387.919 C 232.412 393.999,232.371 393.976,238.000 394.424 C 240.310 394.608,243.250 394.885,244.533 395.039 C 245.816 395.193,248.336 395.121,250.133 394.880 C 251.930 394.638,255.386 394.275,257.812 394.073 C 260.838 393.821,262.724 393.454,263.812 392.904 C 264.686 392.464,266.478 391.972,267.796 391.811 C 269.114 391.650,270.887 391.164,271.736 390.731 C 272.586 390.297,274.363 389.768,275.685 389.555 C 277.008 389.342,278.924 388.751,279.945 388.242 C 280.965 387.732,282.500 387.206,283.355 387.074 C 284.210 386.941,285.560 386.396,286.355 385.863 C 287.150 385.331,288.408 384.783,289.152 384.647 C 289.895 384.511,291.605 383.886,292.952 383.258 C 297.779 381.008,298.208 380.800,298.800 380.420 C 299.130 380.209,300.210 379.662,301.200 379.204 C 303.977 377.922,309.872 374.603,310.800 373.799 C 311.130 373.513,312.118 372.983,312.995 372.621 C 313.872 372.258,314.952 371.641,315.395 371.248 C 315.838 370.855,317.442 369.764,318.959 368.824 C 320.476 367.883,322.656 366.368,323.802 365.457 C 324.949 364.545,327.127 362.904,328.643 361.809 C 330.159 360.713,332.531 358.740,333.913 357.423 C 335.296 356.105,336.916 354.623,337.513 354.127 C 347.359 345.967,351.665 341.737,353.318 338.600 C 353.867 337.557,356.531 334.443,359.165 331.763 C 359.618 331.303,360.279 330.229,360.636 329.377 C 360.992 328.524,361.612 327.460,362.014 327.013 C 364.296 324.474,366.360 321.624,367.385 319.600 C 367.775 318.830,368.403 317.840,368.780 317.400 C 369.158 316.960,369.782 315.745,370.166 314.700 C 370.551 313.655,371.018 312.800,371.204 312.800 C 371.389 312.800,372.004 311.855,372.568 310.700 C 373.133 309.545,374.239 307.430,375.025 306.000 C 375.811 304.570,376.803 302.423,377.230 301.228 C 377.657 300.033,378.243 298.773,378.532 298.428 C 378.821 298.083,379.312 296.990,379.623 296.000 C 379.934 295.010,380.453 293.888,380.778 293.506 C 381.487 292.671,382.386 289.805,382.394 288.349 C 382.397 287.771,382.657 287.085,382.971 286.824 C 383.639 286.270,384.800 283.056,384.800 281.762 C 384.800 281.269,385.251 279.968,385.802 278.870 C 386.369 277.741,386.919 275.773,387.069 274.338 C 387.215 272.942,387.778 270.810,388.320 269.600 C 389.087 267.890,389.349 266.509,389.494 263.400 C 389.646 260.141,389.877 258.992,390.740 257.200 L 391.800 255.000 391.800 231.000 C 391.800 205.858,391.770 205.356,390.014 201.400 C 389.819 200.960,389.563 198.800,389.446 196.600 C 389.243 192.772,388.682 190.325,387.737 189.146 C 387.496 188.846,387.216 187.250,387.114 185.600 C 386.984 183.503,386.617 181.938,385.892 180.400 C 385.323 179.190,384.469 177.030,383.996 175.600 C 382.001 169.574,381.465 168.166,380.928 167.547 C 380.616 167.188,380.172 166.209,379.941 165.371 C 378.967 161.845,371.091 146.006,369.214 143.800 C 368.840 143.360,368.219 142.146,367.834 141.102 C 367.450 140.058,366.899 139.068,366.609 138.902 C 366.320 138.736,365.669 137.790,365.163 136.800 C 364.083 134.688,363.021 133.154,361.500 131.506 C 360.895 130.851,360.400 130.104,360.400 129.846 C 360.400 129.209,356.333 124.251,351.829 119.400 C 349.786 117.200,347.385 114.553,346.493 113.517 C 344.074 110.708,342.557 109.217,338.765 105.922 C 336.875 104.280,334.335 101.995,333.120 100.843 C 331.906 99.692,329.942 98.044,328.756 97.181 C 327.570 96.318,325.793 95.025,324.808 94.306 C 323.822 93.588,322.652 92.692,322.208 92.315 C 321.763 91.938,320.193 90.902,318.718 90.013 C 317.243 89.123,315.564 87.958,314.987 87.423 C 314.409 86.887,313.407 86.333,312.759 86.191 C 312.111 86.049,311.077 85.509,310.462 84.991 C 309.847 84.473,307.826 83.254,305.972 82.282 C 304.117 81.310,302.060 80.227,301.400 79.874 C 300.740 79.522,299.660 78.983,299.000 78.677 C 298.340 78.371,297.260 77.845,296.600 77.509 C 293.408 75.881,290.074 74.472,288.909 74.260 C 288.200 74.130,286.940 73.588,286.109 73.056 C 285.279 72.524,283.844 71.978,282.920 71.843 C 281.997 71.708,280.621 71.231,279.864 70.785 C 279.106 70.338,277.457 69.805,276.198 69.600 C 274.939 69.395,273.126 68.848,272.170 68.385 C 271.213 67.922,269.337 67.389,268.000 67.200 C 266.663 67.011,264.789 66.479,263.835 66.017 C 262.674 65.455,260.731 65.057,257.951 64.812 C 255.256 64.575,253.122 64.146,251.866 63.589 C 248.835 62.247,240.336 62.029,190.336 62.014 L 145.272 62.000 145.113 42.900 C 144.947 22.850,144.808 21.293,142.998 19.200 C 142.712 18.870,142.255 17.841,141.980 16.914 C 140.969 13.494,135.318 8.700,131.764 8.248 C 130.645 8.106,128.988 7.632,128.084 7.195 C 125.893 6.137,121.926 6.116,119.892 7.153 M127.650 22.506 C 131.140 25.168,130.965 24.013,131.269 46.400 C 131.576 68.956,131.808 73.480,132.707 74.500 C 133.288 75.159,136.040 75.200,179.762 75.204 C 227.617 75.208,235.284 75.398,245.600 76.840 C 279.120 81.524,309.695 96.630,333.386 120.211 C 349.676 136.427,360.223 152.808,369.335 176.047 C 373.860 187.590,374.500 190.238,377.783 211.048 C 379.440 221.552,379.218 246.534,377.405 253.600 C 377.094 254.810,376.652 257.317,376.422 259.172 C 374.064 278.200,360.686 307.159,345.506 326.096 C 339.672 333.373,338.088 335.024,330.827 341.398 C 309.126 360.447,290.638 370.962,267.196 377.587 C 242.696 384.512,233.783 381.928,231.362 367.200 C 230.640 362.810,230.528 300.499,231.238 298.462 C 232.321 295.356,238.103 291.490,244.200 289.795 C 287.022 277.890,305.360 229.356,280.865 192.756 C 271.696 179.056,257.877 169.853,240.600 165.940 L 236.600 165.034 185.194 164.904 C 140.762 164.792,133.680 164.853,132.994 165.355 C 131.818 166.214,131.614 169.619,131.287 193.830 L 131.000 215.060 129.936 216.668 C 126.883 221.278,121.064 220.416,113.931 214.297 C 110.694 211.520,38.018 139.024,30.652 131.224 C 24.293 124.491,23.166 118.118,27.270 112.111 C 28.738 109.961,39.934 98.291,46.200 92.379 C 48.840 89.888,64.770 74.143,81.600 57.391 C 113.070 26.065,114.195 25.026,119.216 22.619 C 123.180 20.719,125.271 20.691,127.650 22.506 " stroke="none" fill="#000000" fill-rule="evenodd"></path><path id="path1" d="M119.216 22.619 C 114.195 25.026,113.070 26.065,81.600 57.391 C 64.770 74.143,48.840 89.888,46.200 92.379 C 39.934 98.291,28.738 109.961,27.270 112.111 C 23.166 118.118,24.293 124.491,30.652 131.224 C 38.018 139.024,110.694 211.520,113.931 214.297 C 121.064 220.416,126.883 221.278,129.936 216.668 L 131.000 215.060 131.287 193.830 C 131.614 169.619,131.818 166.214,132.994 165.355 C 133.680 164.853,140.762 164.792,185.194 164.904 L 236.600 165.034 240.600 165.940 C 306.655 180.899,309.294 271.698,244.200 289.795 C 238.103 291.490,232.321 295.356,231.238 298.462 C 230.528 300.499,230.640 362.810,231.362 367.200 C 233.783 381.928,242.696 384.512,267.196 377.587 C 290.638 370.962,309.126 360.447,330.827 341.398 C 338.088 335.024,339.672 333.373,345.506 326.096 C 360.686 307.159,374.064 278.200,376.422 259.172 C 376.652 257.317,377.094 254.810,377.405 253.600 C 379.218 246.534,379.440 221.552,377.783 211.048 C 375.778 198.343,373.904 188.550,372.912 185.600 C 354.898 132.010,316.933 95.079,265.200 80.822 C 246.363 75.631,239.942 75.209,179.762 75.204 C 136.040 75.200,133.288 75.159,132.707 74.500 C 131.808 73.480,131.576 68.956,131.269 46.400 C 130.965 24.013,131.140 25.168,127.650 22.506 C 125.271 20.691,123.180 20.719,119.216 22.619 " stroke="none" fill="#ffffff" fill-rule="evenodd"></path></g></svg>