<?xml version="1.0" encoding="utf-8"?>
<!-- Generator: Adobe Illustrator 16.0.3, SVG Export Plug-In . SVG Version: 6.00 Build 0)  -->
<!DOCTYPE svg PUBLIC "-//W3C//DTD SVG 1.1//EN" "http://www.w3.org/Graphics/SVG/1.1/DTD/svg11.dtd">
<svg version="1.1" id="레이어_1" xmlns="http://www.w3.org/2000/svg" xmlns:xlink="http://www.w3.org/1999/xlink" x="0px"
	 y="0px" width="350.552px" height="279.397px" viewBox="0 0 350.552 279.397" enable-background="new 0 0 350.552 279.397"
	 xml:space="preserve">
<g>
	<defs>
		<rect id="SVGID_1_" width="350.552" height="279.397"/>
	</defs>
	<clipPath id="SVGID_2_">
		<use xlink:href="#SVGID_1_"  overflow="visible"/>
	</clipPath>
	<path clip-path="url(#SVGID_2_)" fill="#FFFFFF" d="M201.964,233.449v-37.25h-1.667H48.963c0,0-12.875,1.125-13.125-11.625v-43.375
		v-3V94.823c0.25-12.75,13.125-11.625,13.125-11.625h151.333h1.667v-37.25c0,0,3.083-11.5,15.5-7.333l1.333,0.916l93.834,92.917
		c0,0,1.995,3.004,2.075,7.125h0.007c0,0.042-0.003,0.083-0.004,0.125c0.001,0.042,0.004,0.083,0.004,0.125h-0.007
		c-0.08,4.122-2.075,7.125-2.075,7.125l-93.834,92.917l-1.333,0.916C205.047,244.949,201.964,233.449,201.964,233.449"/>
	<path clip-path="url(#SVGID_2_)" fill="none" stroke="#000000" stroke-width="6" stroke-miterlimit="10" d="M201.964,233.449
		v-37.25h-1.667H48.963c0,0-12.875,1.125-13.125-11.625v-43.375v-3V94.823c0.25-12.75,13.125-11.625,13.125-11.625h151.333h1.667
		v-37.25c0,0,3.083-11.5,15.5-7.333l1.333,0.916l93.834,92.917c0,0,1.995,3.004,2.075,7.125h0.007c0,0.042-0.003,0.083-0.004,0.125
		c0.001,0.042,0.004,0.083,0.004,0.125h-0.007c-0.08,4.122-2.075,7.125-2.075,7.125l-93.834,92.917l-1.333,0.916
		C205.047,244.949,201.964,233.449,201.964,233.449z"/>
</g>
</svg>
