<?xml version="1.0" encoding="utf-8"?>
<!-- Generator: Adobe Illustrator 16.0.3, SVG Export Plug-In . SVG Version: 6.00 Build 0)  -->
<!DOCTYPE svg PUBLIC "-//W3C//DTD SVG 1.1//EN" "http://www.w3.org/Graphics/SVG/1.1/DTD/svg11.dtd">
<svg version="1.1" id="레이어_1" xmlns="http://www.w3.org/2000/svg" xmlns:xlink="http://www.w3.org/1999/xlink" x="0px"
	 y="0px" width="383.346px" height="383.346px" viewBox="0 0 383.346 383.346" enable-background="new 0 0 383.346 383.346"
	 xml:space="preserve">
<g>
	<defs>
		<rect id="SVGID_1_" width="383.346" height="383.346"/>
	</defs>
	<clipPath id="SVGID_2_">
		<use xlink:href="#SVGID_1_"  overflow="visible"/>
	</clipPath>
	<path clip-path="url(#SVGID_2_)" fill="#FFFFFF" d="M261.86,217.365c-1.909,35.846-31.58,64.324-67.902,64.324
		c-37.556,0-68-30.444-68-68c0-35.842,27.739-65.178,62.916-67.78v30.167c0,0,1.677,6.912,9.75,6.912
		c3.076-0.001,6.152-1.167,8.486-3.501l34.299-34.299l34.299-34.299c2.334-2.334,3.5-5.409,3.5-8.485c0-3.076-1.166-6.152-3.5-8.486
		l-34.299-34.299L207.11,25.32c-2.334-2.334-5.41-3.5-8.486-3.5c-8.073-0.001-9.75,6.911-9.75,6.911V63.87
		C107.981,65.386,42.868,131.425,42.868,212.68c0,82.205,66.641,148.847,148.847,148.847c80.612,0,146.248-64.085,148.763-144.087
		c0.038-1.246-0.988-3.796-3.116-3.796c-12.402,0-56.027,0.045-71.32,0.045C263.624,213.689,261.925,216.148,261.86,217.365"/>
	<path clip-path="url(#SVGID_2_)" fill="none" stroke="#000000" stroke-width="6" stroke-miterlimit="10" d="M261.86,217.365
		c-1.909,35.846-31.58,64.324-67.902,64.324c-37.556,0-68-30.444-68-68c0-35.842,27.739-65.178,62.916-67.78v30.167
		c0,0,1.677,6.912,9.75,6.912c3.076-0.001,6.152-1.167,8.486-3.501l34.299-34.299l34.299-34.299c2.334-2.334,3.5-5.409,3.5-8.485
		c0-3.076-1.166-6.152-3.5-8.486l-34.299-34.299L207.11,25.32c-2.334-2.334-5.41-3.5-8.486-3.5c-8.073-0.001-9.75,6.911-9.75,6.911
		V63.87C107.981,65.386,42.868,131.425,42.868,212.68c0,82.205,66.641,148.847,148.847,148.847
		c80.612,0,146.248-64.085,148.763-144.087c0.038-1.246-0.988-3.796-3.116-3.796c-12.402,0-56.027,0.045-71.32,0.045
		C263.624,213.689,261.925,216.148,261.86,217.365z"/>
</g>
</svg>
