<?xml version="1.0" encoding="utf-8"?>
<!-- Generator: Adobe Illustrator 22.0.1, SVG Export Plug-In . SVG Version: 6.00 Build 0)  -->
<svg version="1.1" xmlns="http://www.w3.org/2000/svg" xmlns:xlink="http://www.w3.org/1999/xlink" x="0px" y="0px"
	 viewBox="0 0 355 355" style="enable-background:new 0 0 355 355;" xml:space="preserve">
<style type="text/css">
	.st0{fill:#F1EB2F;}
	.st1{fill:none;stroke:#000000;stroke-width:6;stroke-linejoin:round;stroke-miterlimit:10;}
	.st2{fill:#FFFFFF;}
	.st3{fill:none;stroke:#000000;stroke-width:6;stroke-linecap:round;stroke-linejoin:round;stroke-miterlimit:10;}
	.st4{fill:none;stroke:#000000;stroke-width:6;stroke-linecap:round;stroke-miterlimit:10;}
</style>
<g id="레이어_3">
</g>
<g id="레이어_5">
	<g id="XMLID_1_">
		<g>
			<polygon class="st0" points="267.6,259.1 230.5,295.4 239.2,346.5 193.3,322.4 147.4,346.5 156.1,295.4 119,259.1 170.4,251.7 
				193.3,205.2 216.2,251.7 			"/>
		</g>
		<g>
			<polygon class="st1" points="193.3,205.2 216.2,251.7 267.6,259.1 230.5,295.4 239.2,346.5 193.3,322.4 147.4,346.5 156.1,295.4 
				119,259.1 170.4,251.7 			"/>
		</g>
	</g>
	<g>
		<path class="st2" d="M307.5,63.3c-4.9-7-14.6-10.8-21.7-15.6c-12-8.2-23.3-17.4-33.7-27.4C243.4,12,234.9,6,222.5,9.5
			c-10.1,2.9-16.5,14.6-21.6,22.9c-6.2,10-11.7,19.1-21.5,26.2c-9,6.5-19.3,10.6-29,15.7c-17,9-35.9,18.7-49.9,32.1
			c-11.3,10.7-20.5,23.5-28.3,36.9c-16,27.2-24.2,53.1-33,83.3c-5.9,20.3,14.4,32.4,26.6,18.2c-0.8,3.9-1.7,7.9-2.9,11.8
			c-6.4,23,29.3,32.8,35.7,9.8c0.6-2.1,1.1-4.2,1.6-6.3c1,5.3,2,10.6,2.8,15.7c3.6,23.5,39.3,13.5,35.7-9.8c-1.7-11-4-21.8-5.5-32.8
			c-2.9-21,7.2-29.6,21.8-42.5c16.9-14.9,35.4-28.1,55.1-39.1c-0.1,0.1,1.5,13.9,1.5,15.7c-0.2,27-26.1,74.5,5.2,93.7
			c8.1,5,20.8,4.2,26-4.6c2.9-4.9,2-11.1,2.1-16.5c0.4-26.1,15.5-46.3,24.5-69.9c3.4-8.9,5.6-18.4,6.3-27.9
			c0.9-12.8,4.7-19.8,11.5-30.2c5.1-7.7,10.1-15.5,15.6-22.9C308.7,81.3,314.1,72.7,307.5,63.3z"/>
		<path class="st3" d="M307.5,63.3c-4.9-7-14.6-10.8-21.7-15.6c-12-8.2-23.3-17.4-33.7-27.4C243.4,12,234.9,6,222.5,9.5
			c-10.1,2.9-16.5,14.6-21.6,22.9c-6.2,10-11.7,19.1-21.5,26.2c-9,6.5-19.3,10.6-29,15.7c-17,9-35.9,18.7-49.9,32.1
			c-11.3,10.7-20.5,23.5-28.3,36.9c-16,27.2-23.6,53.3-33,83.3c-6.6,21,14.4,32.4,26.6,18.2c-0.8,3.9-1.7,7.9-2.9,11.8
			c-6.4,23,29.3,32.8,35.7,9.8c0.6-2.1,1.1-4.2,1.6-6.3c1,5.3,2,10.6,2.8,15.7c3.6,23.5,39.3,13.5,35.7-9.8c-1.7-11-4-21.8-5.5-32.8
			c-2.9-21,7.2-29.6,21.8-42.5c16.9-14.9,35.4-28.1,55.1-39.1c-0.1,0.1,1.5,13.9,1.5,15.7c-0.2,27-26.1,74.5,5.2,93.7
			c8.1,5,20.8,4.2,26-4.6c2.9-4.9,2-11.1,2.1-16.5c0.4-26.1,15.5-46.3,24.5-69.9c3.4-8.9,5.6-18.4,6.3-27.9
			c0.9-12.8,4.7-19.8,11.5-30.2c5.1-7.7,10.1-15.5,15.6-22.9C308.7,81.3,314.1,72.7,307.5,63.3z"/>
		<path class="st4" d="M100.2,260.3c-3.2-23.7-2.7-45.5,6.1-65.1s23.3-36.2,40.1-49.6"/>
		<path class="st4" d="M65.7,244.9c5-19.7,7.4-36.7,13.9-56.1c6.7-19.8,23.5-38.3,34.7-55.7"/>
	</g>
</g>
<g id="레이어_8">
</g>
</svg>
