<?xml version="1.0" encoding="utf-8"?>
<!-- Generator: Adobe Illustrator 22.0.1, SVG Export Plug-In . SVG Version: 6.00 Build 0)  -->
<svg version="1.1" xmlns="http://www.w3.org/2000/svg" xmlns:xlink="http://www.w3.org/1999/xlink" x="0px" y="0px"
	 viewBox="0 0 355 355" style="enable-background:new 0 0 355 355;" xml:space="preserve">
<style type="text/css">
	.st0{fill:#F1EB2F;}
	.st1{fill:none;stroke:#000000;stroke-width:6;stroke-linejoin:round;stroke-miterlimit:10;}
	.st2{fill:#FFFFFF;}
	.st3{fill:none;stroke:#010100;stroke-width:6;stroke-linecap:round;stroke-linejoin:round;stroke-miterlimit:10;}
</style>
<g id="레이어_3">
</g>
<g id="레이어_5">
	<g id="XMLID_1_">
		<g>
			<polygon class="st0" points="267.6,259.1 230.5,295.4 239.2,346.5 193.3,322.4 147.4,346.5 156.1,295.4 119,259.1 170.4,251.7 
				193.3,205.2 216.2,251.7 			"/>
		</g>
		<g>
			<polygon class="st1" points="193.3,205.2 216.2,251.7 267.6,259.1 230.5,295.4 239.2,346.5 193.3,322.4 147.4,346.5 156.1,295.4 
				119,259.1 170.4,251.7 			"/>
		</g>
	</g>
</g>
<g id="레이어_8">
	<g>
		<path class="st2" d="M341.1,60.7c-7.5-16.5-25-12.6-38.2-11.9c-8.5,0.5-16.9,1.2-25.4,1.9c-26.5-0.3-58.2-8.6-84.7-8.9
			c-11.1-0.5-11.8-0.7-22.8-0.5c-0.3,0-10.2,0-10.3,0.1C110.9,50,67.9,56.7,20.7,69C1,74.1,8.8,106.1,26.2,107.8
			c0.5,0,1,0.1,1.5,0.1c2.3,6.6,7.4,11.7,15.2,11.3c55.7-2.9,111.4-3.4,167.2-1.8c-1.5,2-3.1,4.1-4.5,6.1
			c-10.9,15.2-24.6,17.5-41,19.1c-1.4,0.1-2.6,0.4-3.8,0.9c-2.4,0.3-4.8,0.5-7.2,0.8c-21.2,2.5-20.3,42.2,1.1,39.6
			c38.6-4.6,78.1-6.3,115.4-19.5c9.3-3.3,18.6-7.2,28.1-9.5c9.3-2.3,18.3-0.3,27.4-1.8c14.9-2.4,19.2-14.8,19.5-31.2
			C345.4,104.9,348.2,76.2,341.1,60.7z"/>
		<path class="st3" d="M341.1,60.7c-7.5-16.5-25-12.6-38.2-11.9c-8.5,0.5-16.9,1.2-25.4,1.9c-26.5-0.3-49.9-2.8-75.9-8.6
			c-10.8-2.4-35.9-3.6-46.6-0.9c-9.6,2.5-64,17.3-127.3,27.3c-27.9,4.4-19,37.6-1.7,39.3c0.5,0,1,0.1,1.5,0.1
			c2.3,6.6,14.6,11.3,22.5,10.9c55.7-2.9,104.2-3.1,159.9-1.4c-1.5,2-3.1,4.1-4.5,6.1c-6.7,9.4-16.5,14.1-27.6,16.5
			c-9.8,2.1-24.7,1.5-32.8,7.9c-11.9,9.2-20.5,29.5,7,29.5c48,0,63.6,5.5,100.8-7.7c9.3-3.3,35.6-12.4,45.2-14.8
			c9.3-2.3,18.3-0.3,27.4-1.8c14.9-2.4,19.2-14.8,19.5-31.2C345.4,104.9,348.2,76.2,341.1,60.7z"/>
		<path class="st3" d="M28.4,107.5c-5.2-29.6,29.3-26.4,50.7-28.4c32-3.1,67-19.2,93-19.2"/>
	</g>
</g>
</svg>
